<?xml version="1.0" encoding="UTF-8" standalone="no"?>
<svg
		width="24px"
		height="24px"
		viewBox="0 0 24 24"
		version="1.1"
		id="svg12"
		sodipodi:docname="supsubicon2.svg"
		inkscape:version="1.1.2 (0a00cf5339, 2022-02-04)"
		xmlns:inkscape="http://www.inkscape.org/namespaces/inkscape"
		xmlns:sodipodi="http://sodipodi.sourceforge.net/DTD/sodipodi-0.dtd"
		xmlns="http://www.w3.org/2000/svg"
		xmlns:svg="http://www.w3.org/2000/svg"
		xmlns:rdf="http://www.w3.org/1999/02/22-rdf-syntax-ns#"
		xmlns:cc="http://creativecommons.org/ns#"
		xmlns:dc="http://purl.org/dc/elements/1.1/">
	<sodipodi:namedview
			id="namedview14"
			pagecolor="#ffffff"
			bordercolor="#666666"
			borderopacity="1.0"
			inkscape:pageshadow="2"
			inkscape:pageopacity="0.0"
			inkscape:pagecheckerboard="0"
			showgrid="false"
			inkscape:zoom="32.583333"
			inkscape:cx="6.9360614"
			inkscape:cy="12"
			inkscape:window-width="2560"
			inkscape:window-height="1403"
			inkscape:window-x="0"
			inkscape:window-y="0"
			inkscape:window-maximized="1"
			inkscape:current-layer="layer2" />
	<title
			id="title2">icon-superscript-subscript</title>
	<desc
			id="desc4">Created with Sketch.</desc>
	<defs
			id="defs6" />
	<g
			stroke="none"
			stroke-width="1"
			fill="none"
			fill-rule="evenodd"
			id="g10" />
	<g
			id="layer1"
			style="display:inline">
		<path
				d="m 10.482171,11.272339 4.59,4.59 -1.41,1.41 -4.5900003,-4.59 -4.59,4.59 -1.41,-1.41 4.59,-4.59 -4.59,-4.5900004 1.41,-1.41 4.59,4.5900004 4.5900003,-4.5900004 1.41,1.41 z m 10.44,9.03 h -4.88 v -1 l 0.89,-0.8 c 0.76,-0.65 1.32,-1.19 1.7,-1.63 0.37,-0.44 0.56,-0.85 0.57,-1.24 0.01,-0.28 -0.08,-0.51 -0.27,-0.7 -0.18,-0.16 -0.47,-0.28 -0.86,-0.28 -0.31,0 -0.58,0.06 -0.84,0.18 l -0.66,0.38 -0.45,-1.17 c 0.27,-0.21 0.59,-0.39 0.98,-0.53 0.39,-0.14 0.82,-0.24 1.29,-0.24 0.78,0.04 1.38,0.25 1.78,0.66 0.4,0.41 0.62,0.93 0.62,1.57 -0.01,0.56 -0.19,1.08 -0.54,1.55 -0.34,0.47 -0.76,0.92 -1.27,1.36 l -0.64,0.52 2.58,0.02 z"
				fill="#000000"
				fill-rule="nonzero"
				id="path8" />
	</g>
	<g
			id="layer2"
			style="display:inline">
		<path
				d="m 21.009556,8.2124189 h -4.88 v -1 l 0.89,-0.8 c 0.76,-0.65 1.32,-1.19 1.7,-1.63 0.37,-0.44 0.56,-0.85 0.57,-1.24 0.01,-0.28 -0.08,-0.51 -0.27,-0.7 -0.18,-0.16 -0.47,-0.28 -0.86,-0.28 -0.31,0 -0.58,0.06 -0.84,0.18 l -0.66,0.38 -0.45,-1.17 c 0.27,-0.21 0.59,-0.39 0.98,-0.53 0.39,-0.14 0.82,-0.24 1.29,-0.24 0.78,0.04 1.38,0.25 1.78,0.66 0.4,0.41 0.62,0.93 0.62,1.57 -0.01,0.56 -0.19,1.08 -0.54,1.55 -0.34,0.47 -0.76,0.92 -1.27,1.36 l -0.64,0.52 2.58,0.02 z"
				id="path1277" />
	</g>
	<metadata
			id="metadata1899">
		<rdf:RDF>
			<cc:Work
					rdf:about="">
				<dc:title>icon-superscript-subscript</dc:title>
			</cc:Work>
		</rdf:RDF>
	</metadata>
</svg>
